<svg width="437" height="316" viewBox="0 0 437 316" fill="none" xmlns="http://www.w3.org/2000/svg">
<g clip-path="url(#clip0_217_24)">
<path d="M5 0H432C433.326 0 434.598 0.526784 435.536 1.46447C436.473 2.40215 437 3.67392 437 5V311C437 312.326 436.473 313.598 435.536 314.536C434.598 315.473 433.326 316 432 316H5C3.67392 316 2.40215 315.473 1.46447 314.536C0.526784 313.598 0 312.326 0 311L0 5C0 3.67392 0.526784 2.40215 1.46447 1.46447C2.40215 0.526784 3.67392 0 5 0Z" fill="#F2F2F2"/>
<g opacity="0.55">
<path d="M113.193 70.3638H324.806C327.244 70.3638 329.582 71.4187 331.306 73.2964C333.03 75.1741 333.999 77.7208 333.999 80.3763V173.164C333.999 175.819 333.03 178.366 331.306 180.244C329.582 182.122 327.244 183.177 324.806 183.177H113.193C111.985 183.177 110.789 182.917 109.674 182.414C108.558 181.91 107.544 181.172 106.691 180.242C105.837 179.312 105.16 178.207 104.698 176.992C104.237 175.776 103.999 174.474 104 173.158V80.3706C104.001 77.7161 104.971 75.1708 106.694 73.2943C108.418 71.4179 110.756 70.3638 113.193 70.3638Z" fill="#F2F2F2"/>
<path d="M202.758 103.33L168.673 114.215C162.841 116.078 159.499 122.738 161.209 129.091L172.77 172.032C174.481 178.385 180.595 182.024 186.428 180.162L220.513 169.276C226.345 167.413 229.687 160.753 227.977 154.4L216.415 111.459C214.705 105.106 208.59 101.467 202.758 103.33Z" fill="#9F9F9F"/>
<path d="M267.368 91.1754L206.753 71.8437C203.56 70.8255 200.214 72.819 199.279 76.2964L179.936 148.244C179.001 151.721 180.831 155.365 184.024 156.384L244.639 175.715C247.832 176.734 251.178 174.74 252.113 171.263L271.456 99.3155C272.391 95.8381 270.56 92.1936 267.368 91.1754Z" fill="url(#paint0_linear_217_24)" stroke="white" stroke-width="5.398" stroke-linecap="round" stroke-linejoin="round"/>
<path d="M263.635 98.3399L206.883 80.2402L191.656 136.878L248.408 154.978L263.635 98.3399Z" fill="#CCCCCC" stroke="white" stroke-width="2.257" stroke-linecap="round" stroke-linejoin="round"/>
<path d="M263.635 98.3399L206.883 80.2402L199.777 106.671L256.529 124.771L263.635 98.3399Z" fill="white" stroke="white" stroke-width="2.257" stroke-linecap="round" stroke-linejoin="round"/>
<path fill-rule="evenodd" clip-rule="evenodd" d="M203.244 107.777L209.5 102.456L218.023 99.0027L219.23 101.927L222.106 97.5574L223.154 97.4841L225.654 94.4258L240.363 123.715" fill="#CCCCCC"/>
<path d="M203.244 107.777L209.5 102.456L218.023 99.0027L219.23 101.927L222.106 97.5574L223.154 97.4841L225.654 94.4258L240.363 123.715" stroke="white" stroke-width="2.257" stroke-linecap="round" stroke-linejoin="round"/>
<path fill-rule="evenodd" clip-rule="evenodd" d="M225.653 94.4252C225.569 96.6493 225.427 98.8704 225.227 101.089C225.074 102.77 224.887 104.446 224.668 106.116L222.356 104.404L218.023 99.0021L217.067 105.041L216.042 108.103L216.176 112.297L225.032 113.515L235.461 113.952L232.556 102.444L230.93 103.966L228.544 100.181L225.653 94.4252Z" fill="#B3B3B3" stroke="white" stroke-width="2.257" stroke-linecap="round" stroke-linejoin="round"/>
<path fill-rule="evenodd" clip-rule="evenodd" d="M216.096 115.977L228.079 109.627L230.544 109.091L234.777 104.402L238.506 102.625L253.216 131.915" fill="#CCCCCC"/>
<path d="M216.096 115.977L228.079 109.627L230.544 109.091L234.777 104.402L238.506 102.625L253.216 131.915" stroke="white" stroke-width="2.257" stroke-linecap="round" stroke-linejoin="round"/>
<path fill-rule="evenodd" clip-rule="evenodd" d="M238.506 102.625L239.919 114.133L237.881 121.713L239.817 124.99C240.792 124.418 241.848 124.029 242.942 123.841C244.91 123.658 246.888 123.666 248.854 123.865C249.656 123.926 250.461 123.817 251.225 123.546C251.416 123.467 251.601 123.371 251.776 123.258L248.312 122.153L244.999 115.554L243.209 108.29L241.725 109.024L238.506 102.625Z" fill="#B3B3B3" stroke="white" stroke-width="2.257" stroke-linecap="round" stroke-linejoin="round"/>
<path fill-rule="evenodd" clip-rule="evenodd" d="M208.99 142.406C209.267 141.183 208.567 139.865 212.006 139.177C216.226 138.333 227.77 139.296 231.619 137.235C234.468 135.707 224.757 129.898 227.26 127.772C228.396 126.806 234.755 127.434 237.777 126.989C240.64 126.564 240.196 125.055 242.42 124.374C244.568 123.717 250.988 124.405 251.779 123.256C250.219 124.197 243.134 123.288 240.363 123.715C237.439 124.166 237.208 125.432 233.653 125.604C229.823 125.79 222.656 124.906 220.753 125.655C216.764 127.234 224.726 132.744 220.596 133.804C215 135.239 201.873 133.75 196.14 134.203C192.175 134.523 192.253 135.395 191.655 136.878" fill="white"/>
<path d="M208.99 142.406C209.267 141.183 208.567 139.865 212.006 139.177C216.226 138.333 227.77 139.296 231.619 137.235C234.468 135.707 224.757 129.898 227.26 127.772C228.396 126.806 234.755 127.434 237.777 126.989C240.64 126.564 240.196 125.055 242.42 124.374C244.568 123.717 250.988 124.405 251.779 123.256C250.219 124.197 243.134 123.288 240.363 123.715C237.439 124.166 237.208 125.432 233.653 125.604C229.823 125.79 222.656 124.906 220.753 125.655C216.764 127.234 224.726 132.744 220.596 133.804C215 135.239 201.873 133.75 196.14 134.203C192.175 134.523 192.253 135.395 191.655 136.878" stroke="white" stroke-width="2.257" stroke-linecap="round" stroke-linejoin="round"/>
</g>
<path d="M84.9515 239.194C84.0933 239.194 83.3816 238.91 82.8164 238.344C82.2721 237.777 82 237.011 82 236.046C82 235.206 82.2826 234.503 82.8478 233.937C83.4339 233.349 84.1665 233.055 85.0457 233.055C85.883 233.055 86.5843 233.349 87.1495 233.937C87.7147 234.503 87.9972 235.206 87.9972 236.046C87.9972 237.011 87.7147 237.777 87.1495 238.344C86.6052 238.91 85.8726 239.194 84.9515 239.194Z" fill="#BFBFBF"/>
<path d="M104.654 233.087C104.989 233.087 105.209 233.328 105.313 233.811C105.439 234.293 105.502 235.028 105.502 236.014C105.502 237.022 105.439 237.767 105.313 238.249C105.188 238.711 104.968 238.942 104.654 238.942C103.838 238.942 103 238.742 102.142 238.344C101.305 237.924 100.52 237.305 99.7872 236.486C99.536 236.885 99.1487 237.462 98.6254 238.218C98.0811 238.47 97.3589 238.679 96.4588 238.847C95.5797 239.015 94.6272 239.099 93.6015 239.099C92.3246 239.099 91.1942 238.963 90.2104 238.69C90.2941 236.759 90.6395 234.892 91.2466 233.087C92.3351 233.192 93.2666 233.244 94.0411 233.244C95.2761 233.244 96.4274 233.129 97.495 232.898C96.3646 230.883 95.1087 228.984 93.7271 227.2L98.0602 223.518C98.8138 224.588 99.4208 225.606 99.8813 226.571C100.363 227.536 100.918 228.774 101.546 230.285C101.88 231.062 102.173 231.639 102.425 232.017C102.676 232.394 102.969 232.667 103.304 232.835C103.639 233.003 104.089 233.087 104.654 233.087Z" fill="#BFBFBF"/>
<path d="M116.938 233.087C117.273 233.087 117.493 233.328 117.598 233.811C117.723 234.293 117.786 235.028 117.786 236.014C117.786 237.022 117.723 237.767 117.598 238.249C117.472 238.711 117.252 238.942 116.938 238.942C114.803 238.942 113.181 238.207 112.072 236.738H111.789C111.349 237.368 110.732 237.84 109.936 238.155C109.162 238.47 108.398 238.679 107.644 238.784C106.891 238.889 105.896 238.942 104.661 238.942C104.347 238.942 104.128 238.711 104.002 238.249C103.876 237.767 103.814 237.022 103.814 236.014C103.814 235.028 103.876 234.293 104.002 233.811C104.107 233.328 104.326 233.087 104.661 233.087C105.813 233.087 106.776 233.013 107.55 232.866C108.325 232.72 109.026 232.405 109.654 231.922C110.282 231.439 110.795 230.716 111.192 229.75L113.83 230.159C113.809 230.327 113.799 230.558 113.799 230.852C113.799 231.733 114.029 232.331 114.489 232.646C114.95 232.94 115.766 233.087 116.938 233.087ZM114.113 243.128C114.154 243.443 113.924 243.957 113.422 244.671C112.919 245.384 112.49 245.867 112.134 246.119C111.737 245.951 111.234 245.657 110.627 245.237C110.02 244.839 109.57 244.471 109.277 244.136C109.068 244.513 108.796 244.901 108.461 245.3C108.126 245.699 107.854 245.972 107.644 246.119C107.226 245.93 106.692 245.604 106.043 245.143C105.394 244.702 104.934 244.324 104.661 244.01C104.787 243.569 105.101 242.981 105.603 242.247C106.106 241.512 106.524 241.145 106.859 241.145C107.194 241.145 107.697 241.376 108.366 241.838C109.036 242.32 109.445 242.719 109.591 243.034C109.884 242.509 110.188 242.058 110.502 241.68C110.816 241.324 111.098 241.145 111.349 241.145C111.684 241.145 112.208 241.397 112.919 241.901C113.652 242.425 114.05 242.834 114.113 243.128Z" fill="#BFBFBF"/>
<path d="M126.849 233.087C127.184 233.087 127.404 233.328 127.508 233.811C127.634 234.293 127.697 235.028 127.697 236.014C127.697 237.022 127.634 237.767 127.508 238.249C127.383 238.711 127.163 238.942 126.849 238.942C126.012 238.942 125.174 238.763 124.337 238.407C123.521 238.05 122.882 237.494 122.422 236.738H122.17C121.71 237.557 121.05 238.134 120.192 238.47C119.334 238.784 118.245 238.942 116.927 238.942C116.613 238.942 116.393 238.711 116.267 238.249C116.142 237.767 116.079 237.022 116.079 236.014C116.079 235.028 116.142 234.293 116.267 233.811C116.372 233.328 116.592 233.087 116.927 233.087C118.204 233.087 119.219 232.866 119.972 232.426C120.747 231.985 121.27 231.093 121.542 229.75L124.211 230.159C124.19 230.327 124.18 230.569 124.18 230.883C124.18 231.765 124.368 232.352 124.745 232.646C125.143 232.94 125.844 233.087 126.849 233.087ZM122.076 227.547C121.637 227.379 121.061 227.054 120.349 226.571C119.637 226.067 119.146 225.637 118.873 225.28C118.936 225.008 119.093 224.64 119.344 224.179C119.617 223.696 119.92 223.266 120.255 222.888C120.59 222.489 120.883 222.269 121.134 222.227C121.364 222.185 121.71 222.29 122.17 222.542C122.652 222.794 123.091 223.108 123.489 223.486C123.908 223.843 124.138 224.126 124.18 224.336C124.264 224.651 124.023 225.207 123.458 226.004C122.913 226.781 122.453 227.295 122.076 227.547Z" fill="#BFBFBF"/>
<path d="M139.515 225.595L135.214 226.949C137.098 229.761 138.04 232.405 138.04 234.881C138.04 235.406 137.987 235.899 137.883 236.361C137.778 236.822 137.6 237.357 137.349 237.966C135.842 238.323 134.293 238.574 132.702 238.721C131.111 238.868 129.164 238.942 126.862 238.942C126.548 238.942 126.328 238.711 126.202 238.249C126.077 237.767 126.014 237.022 126.014 236.014C126.014 235.028 126.077 234.293 126.202 233.811C126.307 233.328 126.527 233.087 126.862 233.087C129.353 233.087 131.467 233.003 133.204 232.835C131.969 231.177 130.598 229.866 129.091 228.9V223.832L139.076 220.087L139.515 220.401V225.595Z" fill="#BFBFBF"/>
<path d="M164.423 228.334C164.799 229.677 164.988 231.093 164.988 232.583C164.988 234.787 164.559 236.644 163.7 238.155C162.821 238.449 161.639 238.69 160.152 238.879C158.666 239.047 157.033 239.131 155.254 239.131C151.947 239.131 148.796 238.805 145.803 238.155C146.033 236.119 146.462 234.21 147.09 232.426C150.398 232.95 153.684 233.213 156.95 233.213C158.164 233.213 159.325 233.16 160.435 233.055C160.247 232.279 160.037 231.534 159.807 230.82C159.577 230.107 159.43 229.666 159.367 229.498L164.423 228.334ZM155.788 246.654C155.348 246.486 154.773 246.15 154.061 245.646C153.349 245.164 152.857 244.744 152.585 244.387C152.648 244.115 152.805 243.737 153.056 243.254C153.328 242.792 153.632 242.362 153.967 241.964C154.302 241.586 154.595 241.376 154.846 241.334C155.076 241.292 155.422 241.397 155.882 241.649C156.364 241.901 156.803 242.205 157.201 242.562C157.619 242.939 157.85 243.233 157.892 243.443C157.975 243.758 157.735 244.303 157.169 245.08C156.625 245.877 156.165 246.402 155.788 246.654Z" fill="#BFBFBF"/>
<path d="M173.588 233.087C173.923 233.087 174.143 233.328 174.247 233.811C174.373 234.293 174.436 235.028 174.436 236.014C174.436 237.022 174.373 237.767 174.247 238.249C174.122 238.711 173.902 238.942 173.588 238.942C172.437 238.942 171.317 238.868 170.228 238.721C169.161 238.574 168.261 238.344 167.528 238.029C167.34 237.273 167.183 233.863 167.057 227.799L166.869 221.409L171.924 221.125C172.112 224.252 172.206 227.127 172.206 229.75C172.206 230.548 172.186 231.618 172.144 232.961C172.667 233.045 173.148 233.087 173.588 233.087Z" fill="#BFBFBF"/>
<path d="M191.176 233.087C191.511 233.087 191.731 233.328 191.835 233.811C191.961 234.293 192.024 235.028 192.024 236.014C192.024 237.022 191.961 237.767 191.835 238.249C191.71 238.711 191.49 238.942 191.176 238.942C190.004 238.942 188.894 238.69 187.848 238.186C186.822 237.683 186.058 236.969 185.556 236.046C184.446 236.109 183.284 236.361 182.07 236.801C181.505 237.011 180.982 237.21 180.5 237.399C179.223 237.903 178.083 238.291 177.078 238.564C176.073 238.816 174.911 238.942 173.592 238.942C173.278 238.942 173.059 238.711 172.933 238.249C172.807 237.767 172.745 237.022 172.745 236.014C172.745 235.028 172.807 234.293 172.933 233.811C173.038 233.328 173.257 233.087 173.592 233.087C174.723 233.087 175.686 233.013 176.481 232.866C177.298 232.72 178.365 232.489 179.684 232.174L180.469 231.985L182.416 231.544C181.62 231.104 180.95 230.778 180.406 230.569C179.82 230.338 179.192 230.18 178.522 230.096C177.852 229.992 176.984 229.908 175.916 229.845L175.225 229.813L175.1 229.687C175.183 228.89 175.34 228.008 175.571 227.043C175.822 226.057 176.062 225.333 176.293 224.871C176.732 224.808 177.141 224.777 177.517 224.777C178.292 224.777 179.014 224.903 179.684 225.154C180.354 225.385 181.034 225.721 181.725 226.162L182.824 226.886C184.582 228.019 185.911 228.858 186.811 229.404C187.712 229.929 188.35 230.191 188.727 230.191C188.664 231.24 188.559 232.132 188.413 232.866C189.187 233.013 190.108 233.087 191.176 233.087ZM181.003 223.329C180.563 223.161 179.987 222.836 179.276 222.353C178.564 221.849 178.072 221.419 177.8 221.062C177.863 220.79 178.02 220.422 178.271 219.961C178.543 219.478 178.847 219.048 179.181 218.67C179.516 218.271 179.809 218.051 180.061 218.009C180.291 217.967 180.636 218.072 181.097 218.324C181.578 218.576 182.018 218.89 182.416 219.268C182.834 219.625 183.065 219.908 183.106 220.118C183.19 220.433 182.949 220.989 182.384 221.786C181.84 222.563 181.379 223.077 181.003 223.329Z" fill="#BFBFBF"/>
<path d="M203.44 233.087C203.774 233.087 203.994 233.328 204.099 233.811C204.225 234.293 204.287 235.028 204.287 236.014C204.287 237.022 204.225 237.767 204.099 238.249C203.973 238.711 203.754 238.942 203.44 238.942C201.304 238.942 199.682 238.207 198.573 236.738H198.29C197.85 237.368 197.233 237.84 196.438 238.155C195.663 238.47 194.899 238.679 194.145 238.784C193.392 238.889 192.398 238.942 191.162 238.942C190.848 238.942 190.629 238.711 190.503 238.249C190.377 237.767 190.315 237.022 190.315 236.014C190.315 235.028 190.377 234.293 190.503 233.811C190.608 233.328 190.828 233.087 191.162 233.087C192.314 233.087 193.277 233.013 194.051 232.866C194.826 232.72 195.527 232.405 196.155 231.922C196.783 231.439 197.296 230.716 197.694 229.75L200.331 230.159C200.31 230.327 200.3 230.558 200.3 230.852C200.3 231.733 200.53 232.331 200.99 232.646C201.451 232.94 202.267 233.087 203.44 233.087ZM202.403 224.556C202.445 224.871 202.215 225.385 201.713 226.099C201.21 226.812 200.781 227.295 200.425 227.547C200.028 227.379 199.525 227.096 198.918 226.697C198.311 226.277 197.861 225.899 197.568 225.564C197.359 225.941 197.086 226.33 196.752 226.728C196.417 227.127 196.144 227.4 195.935 227.547C195.516 227.358 194.983 227.043 194.334 226.602C193.685 226.141 193.224 225.753 192.952 225.438C193.078 224.997 193.392 224.409 193.894 223.675C194.397 222.941 194.815 222.573 195.15 222.573C195.485 222.573 195.987 222.815 196.657 223.297C197.327 223.759 197.735 224.147 197.882 224.462C198.175 223.937 198.478 223.497 198.792 223.14C199.106 222.762 199.389 222.573 199.64 222.573C199.975 222.573 200.498 222.836 201.21 223.36C201.943 223.864 202.341 224.263 202.403 224.556Z" fill="#BFBFBF"/>
<path d="M210.461 228.176C210.838 229.372 211.026 230.747 211.026 232.3C211.026 233.433 210.911 234.503 210.681 235.511C210.472 236.518 210.158 237.357 209.739 238.029C207.834 238.637 205.73 238.942 203.428 238.942C203.114 238.942 202.894 238.711 202.768 238.249C202.643 237.767 202.58 237.022 202.58 236.014C202.58 235.028 202.643 234.293 202.768 233.811C202.873 233.328 203.093 233.087 203.428 233.087C204.747 233.087 205.762 232.992 206.474 232.804C206.264 231.922 205.908 230.768 205.406 229.341L210.461 228.176ZM207.258 226.571C206.819 226.403 206.243 226.078 205.532 225.595C204.82 225.091 204.328 224.661 204.056 224.305C204.119 224.032 204.276 223.664 204.527 223.203C204.799 222.72 205.102 222.29 205.437 221.912C205.772 221.514 206.065 221.293 206.317 221.251C206.547 221.209 206.892 221.314 207.353 221.566C207.834 221.818 208.274 222.133 208.671 222.51C209.09 222.867 209.32 223.15 209.362 223.36C209.446 223.675 209.205 224.231 208.64 225.029C208.096 225.805 207.635 226.319 207.258 226.571Z" fill="#BFBFBF"/>
<path d="M213.145 238.879C213.249 237.2 213.302 235.458 213.302 233.653C213.302 230.275 213.176 226.193 212.925 221.409L218.011 221.125C218.284 225.154 218.42 228.974 218.42 232.583C218.42 234.871 218.378 236.728 218.294 238.155C217.854 238.407 217.153 238.616 216.19 238.784C215.227 238.931 214.275 239.015 213.333 239.036L213.145 238.879Z" fill="#BFBFBF"/>
<path d="M225.563 238.879C225.668 237.2 225.72 235.458 225.72 233.653C225.72 230.275 225.595 226.193 225.343 221.409L230.43 221.125C230.702 225.154 230.838 228.974 230.838 232.583C230.838 234.871 230.796 236.728 230.713 238.155C230.273 238.407 229.572 238.616 228.609 238.784C227.646 238.931 226.694 239.015 225.752 239.036L225.563 238.879Z" fill="#BFBFBF"/>
<path d="M234.629 247C233.896 246.727 233.038 246.255 232.054 245.583C231.05 244.933 230.327 244.335 229.888 243.789C230.893 242.299 231.876 240.526 232.839 238.47C233.844 236.371 234.671 234.252 235.32 232.111L239.716 233.59C239.36 235.668 238.711 237.945 237.769 240.421C237.183 241.953 236.576 243.317 235.948 244.513C235.341 245.73 234.901 246.559 234.629 247Z" fill="#BFBFBF"/>
<path d="M279.07 233.087C279.405 233.087 279.625 233.328 279.73 233.811C279.855 234.293 279.918 235.028 279.918 236.014C279.918 237.022 279.855 237.767 279.73 238.249C279.604 238.711 279.384 238.942 279.07 238.942C278.296 238.942 277.563 238.826 276.872 238.595C276.181 238.344 275.553 237.829 274.988 237.053H274.737C273.921 238.312 272.979 238.942 271.911 238.942C271.388 238.942 270.875 238.784 270.373 238.47C269.891 238.134 269.462 237.662 269.085 237.053H268.803C268.3 237.662 267.735 238.144 267.107 238.501C266.479 238.858 265.809 239.036 265.098 239.036C264.909 239.036 264.763 239.026 264.658 239.005C264.511 241.712 263.862 243.852 262.711 245.426C259.739 246.307 257.143 246.748 254.924 246.748C251.973 246.748 249.775 246.119 248.33 244.86C246.886 243.621 246.164 241.859 246.164 239.571C246.164 237.326 246.834 234.566 248.173 231.293L252.506 232.709C251.753 234.787 251.376 236.444 251.376 237.683C251.376 238.795 251.68 239.613 252.287 240.138C252.894 240.683 253.804 240.956 255.018 240.956C256.212 240.956 257.792 240.694 259.76 240.169C259.529 237.672 258.933 234.996 257.97 232.143L262.523 230.222L262.743 230.348C262.889 231.335 263.182 232.08 263.622 232.583C264.061 233.066 264.574 233.307 265.16 233.307C265.851 233.307 266.479 232.992 267.044 232.363C267.63 231.733 268.028 230.862 268.237 229.75L270.875 230.159C270.833 230.537 270.812 230.789 270.812 230.915C270.812 231.586 270.959 232.132 271.252 232.552C271.545 232.971 271.911 233.181 272.351 233.181C272.874 233.181 273.293 232.887 273.607 232.3C273.921 231.691 274.109 230.82 274.172 229.687H276.778C276.778 230.757 276.872 231.534 277.061 232.017C277.27 232.499 277.521 232.804 277.814 232.929C278.128 233.034 278.547 233.087 279.07 233.087Z" fill="#BFBFBF"/>
<path d="M292.544 233.087C292.879 233.087 293.099 233.328 293.204 233.811C293.329 234.293 293.392 235.028 293.392 236.014C293.392 237.022 293.329 237.767 293.204 238.249C293.078 238.711 292.858 238.942 292.544 238.942C291.812 238.942 291.069 238.732 290.315 238.312C289.582 237.871 288.829 237.263 288.054 236.486L286.861 238.218C286.191 238.491 285.291 238.679 284.161 238.784C283.051 238.889 281.356 238.942 279.074 238.942C278.76 238.942 278.54 238.711 278.415 238.249C278.289 237.767 278.226 237.022 278.226 236.014C278.226 235.028 278.289 234.293 278.415 233.811C278.519 233.328 278.739 233.087 279.074 233.087C281.46 233.087 283.365 232.992 284.789 232.804C283.93 231.796 283.25 231.02 282.748 230.474C282.266 229.908 281.753 229.383 281.209 228.9V223.832L291.226 220.087L291.665 220.401V225.595L286.17 227.326L287.677 229.152C288.808 230.537 289.708 231.544 290.378 232.174C291.069 232.783 291.791 233.087 292.544 233.087Z" fill="#BFBFBF"/>
<path d="M305.692 232.237C305.733 232.95 305.692 233.832 305.566 234.881C305.44 235.93 305.273 236.791 305.064 237.462C304.498 237.567 303.839 237.62 303.085 237.62C301.662 237.62 300.542 237.473 299.726 237.179C298.323 237.788 297.067 238.239 295.958 238.532C294.869 238.805 293.728 238.942 292.535 238.942C292.221 238.942 292.001 238.711 291.876 238.249C291.75 237.767 291.687 237.022 291.687 236.014C291.687 235.028 291.75 234.293 291.876 233.811C291.981 233.328 292.2 233.087 292.535 233.087C293.017 233.087 293.823 233.045 294.953 232.961C294.765 232.457 294.639 231.954 294.576 231.45C294.534 231.03 294.513 230.716 294.513 230.506C294.513 228.848 295.12 227.41 296.335 226.193C297.549 224.976 299.202 224.221 301.296 223.927C301.672 223.864 302.07 223.832 302.489 223.832C303.138 223.832 303.776 223.916 304.404 224.084C304.509 224.756 304.561 225.7 304.561 226.917C304.561 227.652 304.53 228.229 304.467 228.648C302.73 228.669 301.369 228.785 300.385 228.995C299.401 229.205 298.826 229.572 298.658 230.096C298.574 230.39 298.658 230.747 298.909 231.167C299.181 231.565 299.579 231.975 300.102 232.394C302.405 232.184 304.195 232.08 305.472 232.08L305.692 232.237Z" fill="#BFBFBF"/>
<path d="M319.055 233.087C319.389 233.087 319.609 233.328 319.714 233.811C319.84 234.293 319.902 235.028 319.902 236.014C319.902 237.022 319.84 237.767 319.714 238.249C319.588 238.711 319.369 238.942 319.055 238.942C317.903 238.942 316.783 238.868 315.695 238.721C314.627 238.574 313.727 238.344 312.995 238.029C312.806 237.273 312.649 233.863 312.524 227.799L312.335 221.409L317.39 221.125C317.579 224.252 317.673 227.127 317.673 229.75C317.673 230.548 317.652 231.618 317.61 232.961C318.134 233.045 318.615 233.087 319.055 233.087Z" fill="#BFBFBF"/>
<path d="M330.331 233.087C330.666 233.087 330.886 233.328 330.991 233.811C331.116 234.293 331.179 235.028 331.179 236.014C331.179 237.022 331.116 237.767 330.991 238.249C330.865 238.711 330.645 238.942 330.331 238.942C329.306 238.942 328.374 238.669 327.537 238.123C325.904 238.669 323.078 238.942 319.059 238.942C318.745 238.942 318.525 238.711 318.4 238.249C318.274 237.767 318.211 237.022 318.211 236.014C318.211 235.028 318.274 234.293 318.4 233.811C318.504 233.328 318.724 233.087 319.059 233.087H319.687C319.729 232.122 319.98 231.146 320.441 230.159C320.901 229.173 321.519 228.365 322.293 227.736C323.089 227.085 323.978 226.76 324.962 226.76C326.302 226.76 327.369 227.337 328.165 228.491C328.96 229.645 329.358 231.051 329.358 232.709V233.087H330.331ZM324.711 233.024C325.423 233.024 326.166 232.95 326.94 232.804C326.584 232.447 326.145 232.163 325.621 231.954C325.119 231.723 324.627 231.597 324.146 231.576C323.727 231.576 323.371 231.681 323.078 231.891C322.806 232.08 322.68 232.331 322.701 232.646C322.89 232.898 323.56 233.024 324.711 233.024ZM324.554 224.871C324.114 224.703 323.539 224.378 322.827 223.895C322.115 223.392 321.623 222.961 321.351 222.605C321.414 222.332 321.571 221.965 321.822 221.503C322.094 221.02 322.398 220.59 322.733 220.212C323.068 219.814 323.361 219.593 323.612 219.551C323.842 219.509 324.188 219.614 324.648 219.866C325.129 220.118 325.569 220.433 325.967 220.811C326.385 221.167 326.616 221.451 326.658 221.66C326.741 221.975 326.501 222.531 325.935 223.329C325.391 224.105 324.931 224.619 324.554 224.871Z" fill="#BFBFBF"/>
<path d="M346.985 233.087C347.32 233.087 347.539 233.328 347.644 233.811C347.77 234.293 347.832 235.028 347.832 236.014C347.832 237.022 347.77 237.767 347.644 238.249C347.518 238.711 347.299 238.942 346.985 238.942C345.791 238.942 344.713 238.574 343.751 237.84C342.264 238.281 340.652 238.574 338.915 238.721C337.199 238.868 335.262 238.942 333.106 238.942H330.343C330.029 238.942 329.809 238.711 329.684 238.249C329.558 237.767 329.495 237.022 329.495 236.014C329.495 235.028 329.558 234.293 329.684 233.811C329.788 233.328 330.008 233.087 330.343 233.087H331.379C331.63 232.415 331.808 231.544 331.913 230.474C332.018 229.404 332.07 227.998 332.07 226.256C332.07 225.585 332.049 224.221 332.007 222.164V221.409L337.062 221.125C337.062 223.811 336.947 225.983 336.717 227.641C337.68 226.907 338.538 226.497 339.292 226.414C339.459 226.393 339.7 226.382 340.014 226.382C341.689 226.382 343.039 226.97 344.065 228.145C345.111 229.299 345.655 230.946 345.697 233.087H346.985ZM334.519 233.465C335.294 233.528 336.204 233.559 337.251 233.559C338.507 233.559 339.595 233.507 340.516 233.402C341.458 233.297 341.992 233.129 342.118 232.898C341.992 232.562 341.71 232.3 341.27 232.111C340.83 231.901 340.318 231.796 339.731 231.796C338.936 231.796 338.078 231.943 337.157 232.237C336.236 232.51 335.356 232.919 334.519 233.465Z" fill="#BFBFBF"/>
<path d="M354.56 221.125C354.853 226.036 355 229.635 355 231.922C355 233.16 354.906 234.293 354.717 235.322C354.529 236.35 354.194 237.294 353.713 238.155C352.268 238.616 350.028 238.879 346.993 238.942C346.679 238.942 346.459 238.711 346.334 238.249C346.208 237.767 346.145 237.022 346.145 236.014C346.145 235.028 346.208 234.293 346.334 233.811C346.438 233.328 346.658 233.087 346.993 233.087C348.375 233.087 349.537 233.045 350.479 232.961C350.437 231.702 350.332 230.201 350.165 228.46C350.018 226.718 349.861 224.987 349.694 223.266L349.505 221.409L354.56 221.125Z" fill="#BFBFBF"/>
</g>
<defs>
<linearGradient id="paint0_linear_217_24" x1="275.564" y1="97.7362" x2="250.738" y2="170.604" gradientUnits="userSpaceOnUse">
<stop stop-color="#C2C2C2"/>
<stop offset="1" stop-color="#9F9F9F"/>
</linearGradient>
<clipPath id="clip0_217_24">
<rect width="437" height="316" fill="white"/>
</clipPath>
</defs>
</svg>
